<?xml version="1.0" standalone="no"?><!DOCTYPE svg PUBLIC "-//W3C//DTD SVG 1.1//EN" "http://www.w3.org/Graphics/SVG/1.1/DTD/svg11.dtd"><svg t="1706259959413" class="icon" viewBox="0 0 1024 1024" version="1.1" xmlns="http://www.w3.org/2000/svg" p-id="1454" xmlns:xlink="http://www.w3.org/1999/xlink" width="200" height="200"><path d="M511.960752 1023.971558a521.09799 521.09799 0 0 1-52.347289-2.645095 505.440733 505.440733 0 0 1-99.90212-20.392831 510.602935 510.602935 0 0 1-47.028656-17.207341A513.276472 513.276472 0 0 1 40.237874 711.281478 509.550585 509.550585 0 0 1 2.637702 564.350702a520.48649 520.48649 0 0 1 0-104.680357 507.21835 507.21835 0 0 1 37.600172-146.930776A513.461344 513.461344 0 0 1 312.682687 40.294756c15.315955-6.48475 31.143864-12.272673 47.028656-17.221561s32.580179-9.229392 49.062251-12.613976a517.101905 517.101905 0 0 1 50.839869-7.764635 520.48649 520.48649 0 0 1 104.680357 0 507.502769 507.502769 0 0 1 146.930776 37.600172 513.461344 513.461344 0 0 1 272.444813 272.444813 509.451038 509.451038 0 0 1 29.835537 96.090907 516.604172 516.604172 0 0 1 0 206.360095c-3.370363 16.510514-7.622425 33.006807-12.628196 49.062251s-10.736811 31.712701-17.207341 47.042877a513.461344 513.461344 0 0 1-272.444813 272.444813 508.356026 508.356026 0 0 1-96.105128 29.835537 518.779976 518.779976 0 0 1-50.825648 7.764635 521.297083 521.297083 0 0 1-52.333068 2.630874z m-68.018767-696.527535a289.723258 289.723258 0 0 0-132.681392 102.732088 268.263856 268.263856 0 0 0-55.276803 155.264248c0 67.734348 19.425807 115.943343 59.429318 147.400068 40.998977 32.238876 104.723019 47.910355 194.82691 47.910354s153.870596-15.643037 194.82691-47.910354c39.98929-31.456724 59.415097-79.637277 59.415097-147.414289a268.263856 268.263856 0 0 0-55.276803-155.250027 289.509944 289.509944 0 0 0-132.681392-102.746309H443.856659z m55.291024-117.934274c-10.082648 0-21.416739 0.583059-33.632529 1.720734-9.769787 0.91014-20.165296 2.190025-30.873666 3.811212-17.392212 2.602432-29.863979 5.219086-31.286073 5.517726a12.23001 12.23001 0 0 0-8.973414 14.732896 23.734753 23.734753 0 0 0 1.891385 5.503505 33.04947 33.04947 0 0 0 3.384584 5.574609l36.860683 47.896134h128.983947l36.860682-47.896134 3.697445-7.380669v-3.683224a13.239697 13.239697 0 0 0-2.844188-8.74588 23.84852 23.84852 0 0 0-8.29081-6.001237c-0.113768 0-13.12593-2.844188-31.286073-5.517726-10.70837-1.606966-21.075437-2.844188-30.873666-3.811212a376.854972 376.854972 0 0 0-33.618307-1.706513z m14.732896 486.469995a15.870572 15.870572 0 0 1-14.747117-14.732896v-47.910355H425.511644a14.761338 14.761338 0 0 1 0-29.494234h73.707144v-40.529686H425.511644a14.761338 14.761338 0 0 1 0-29.494234h77.390368v-3.683224a4.564922 4.564922 0 0 1-1.848723-0.455071 3.327701 3.327701 0 0 1-1.848722-3.242375l-58.960027-70.02392a9.95466 9.95466 0 0 1-5.361295-7.55132 15.059978 15.059978 0 0 1 0.782151-7.39489 19.6249 19.6249 0 0 1 4.579144-7.110471 13.197034 13.197034 0 0 1 9.456927-4.010306 14.405815 14.405815 0 0 1 12.670859 7.707751l51.593579 58.960027 51.593579-58.960027a22.753508 22.753508 0 0 1 6.484749-4.67869 15.38706 15.38706 0 0 1 6.470529-1.422094 20.350168 20.350168 0 0 1 9.158287 2.41756 23.919625 23.919625 0 0 1 4.266283 5.531946 15.913234 15.913234 0 0 1 1.791839 5.531947 19.184051 19.184051 0 0 1-2.318014 11.063893l-58.960027 70.038141a3.071724 3.071724 0 0 1-2.289572 3.213933 18.046376 18.046376 0 0 1-5.062655 0.440849h77.390368a14.747117 14.747117 0 0 1 0 29.480014h-73.707144V600.215918h73.707144a14.761338 14.761338 0 0 1 0 29.494235h-73.707144v51.593579a15.870572 15.870572 0 0 1-14.747117 14.732896z" fill="#FF9900" p-id="1455"></path></svg>